<svg version="1.1" class="clearos-svg clearfoundation app-vendor-clearfoundation app-free app-category-reports app-sub-category-performance-and-resources" viewBox="0 0 400 400" preserveAspectRatio="xMinYMin" xmlns="http://www.w3.org/2000/svg" xmlns:xlink= "http://www.w3.org/1999/xlink">
<path fill="#AA0707" d="M91.666,184.647"/>
<path fill="#AA0707" d="M123.245,247.805"/>
<path fill="#AA0707" d="M91.666,184.647"/>
<path fill="#AA0707" d="M123.245,247.805"/>
<g>
	<path fill="#686868" d="M193.375,146.772c-56.47,0-102.23,45.778-102.23,102.232c0,56.455,45.777,102.248,102.23,102.248
		c56.455,0,102.264-45.793,102.264-102.248C295.639,192.55,249.846,146.772,193.375,146.772z M278.368,289.919l-84.993-39.731
		c0,0,0-50.779,0-93.798c48.209-2.213,93.801,40.821,93.801,93.798C287.176,272.789,278.368,289.919,278.368,289.919z"/>
	<path fill="#686868" d="M385.23,48.748H14.771c-6.641,0-12.033,5.362-12.033,12.001v51.124c0,6.64,5.394,12.033,12.033,12.033
		h370.46c6.641,0,12.032-5.393,12.032-12.033V60.749C397.264,54.11,391.869,48.748,385.23,48.748z M376.813,101.867
		c0,4.052-3.271,7.326-7.324,7.326H232.016c-4.054,0-7.295-3.273-7.295-7.326V70.803c0-4.037,3.241-7.31,7.295-7.31h137.474
		c4.053,0,7.325,3.273,7.325,7.31v31.064H376.813z"/>
</g>
</svg>
